<svg width="18" height="16" viewBox="0 0 18 16" fill="none" xmlns="http://www.w3.org/2000/svg">
<path d="M17.9648 2.42736C17.301 2.7191 16.5923 2.91784 15.8461 3.00858C16.6066 2.55035 17.1915 1.82813 17.4683 0.966419C16.7551 1.38265 15.9646 1.68564 15.1231 1.85438C14.4511 1.13516 13.4934 0.685181 12.43 0.685181C10.3923 0.685181 8.74014 2.33736 8.74014 4.37278C8.74014 4.66526 8.77388 4.9465 8.83538 5.21574C5.76801 5.071 3.04937 3.59806 1.22995 1.3714C0.909712 1.91288 0.73047 2.5421 0.73047 3.22757C0.73047 4.51002 1.38294 5.63722 2.3714 6.29945C1.76618 6.27995 1.19695 6.11345 0.700471 5.83747V5.88321C0.700471 7.67189 1.97017 9.16358 3.65985 9.50331C3.35011 9.58656 3.02312 9.63156 2.68789 9.63156C2.4524 9.63156 2.22666 9.60906 2.00092 9.56706C2.47415 11.0317 3.83459 12.0997 5.45377 12.1297C4.19383 13.1189 2.59714 13.7084 0.877463 13.7084C0.584976 13.7084 0.293238 13.6911 0 13.6581C1.64168 14.7036 3.57585 15.3148 5.66751 15.3148C12.4577 15.3148 16.1663 9.69306 16.1663 4.82576C16.1663 4.66901 16.1663 4.51077 16.1551 4.35328C16.8758 3.83655 17.505 3.18333 18 2.44236L17.9648 2.42736Z" />
</svg>
